<svg xmlns="http://www.w3.org/2000/svg" width="64" height="64" viewBox="0 0 64 64" fill="none">
  <path d="M51.1998 53.3333C46.3963 53.3333 41.5803 52.2275 36.7518 50.016C31.9234 47.8044 27.4745 44.664 23.4052 40.5946C19.3696 36.5253 16.2381 32.0622 14.0105 27.2053C11.7812 22.3466 10.6665 17.5448 10.6665 12.8V10.6666H22.5038L24.7652 21.5546L17.5758 28.248C18.7918 30.3564 20.0514 32.2826 21.3545 34.0266C22.6576 35.7706 24.0149 37.3431 25.4265 38.744C26.8523 40.2373 28.4594 41.6329 30.2478 42.9306C32.0363 44.2284 34.0772 45.5084 36.3705 46.7706L43.3332 39.5493L53.3332 41.5653V53.3333H51.1998ZM16.3225 25.744L21.9012 20.624L20.3598 13.3333H13.3465C13.3998 15.3671 13.6745 17.416 14.1705 19.48C14.6647 21.5422 15.3821 23.6302 16.3225 25.744ZM38.8558 47.9706C40.4967 48.7937 42.3545 49.4364 44.4292 49.8986C46.5038 50.3608 48.583 50.6071 50.6665 50.6373V43.6906L44.2985 42.424L38.8558 47.9706Z" fill="#6D1ED4"/>
</svg>