<svg xmlns="http://www.w3.org/2000/svg" width="64" height="64" viewBox="0 0 64 64" fill="none">
  <path d="M56.5147 26.1547C42.976 12.616 21.0267 12.616 7.48803 26.1547L5.6027 28.04L1.83203 24.2667L3.71736 22.3814C19.3387 6.76269 44.664 6.76269 60.2854 22.3814L62.1707 24.2667L58.4 28.04L56.5147 26.1547ZM44.256 38.4107C41.0054 35.1604 36.5969 33.3344 32 33.3344C27.4032 33.3344 22.9946 35.1604 19.744 38.4107L17.8587 40.296L14.088 36.5254L15.9734 34.64C20.2241 30.3899 25.989 28.0022 32 28.0022C38.0111 28.0022 43.776 30.3899 48.0267 34.64L49.9147 36.5254L46.1414 40.296L44.256 38.4107ZM28.2294 46.896C28.7246 46.4006 29.3127 46.0075 29.9599 45.7393C30.6071 45.4712 31.3008 45.3332 32.0014 45.3332C32.7019 45.3332 33.3956 45.4712 34.0428 45.7393C34.6901 46.0075 35.2781 46.4006 35.7734 46.896L37.6587 48.7814L32 54.4374L26.3467 48.7814L28.2294 46.896Z" fill="#FF5805"/>
</svg>