<svg width="360" height="548" viewBox="0 0 360 548" fill="none" xmlns="http://www.w3.org/2000/svg">
<path opacity="0.4" fill-rule="evenodd" clip-rule="evenodd" d="M45.2163 212.87C68.9529 183.052 99.3716 161.662 132.682 149.096L132.704 149.068L133.605 148.746C134.89 148.272 136.177 147.812 137.471 147.357L159.235 139.526L415.028 45.287L400.081 2.80544L402.75 0.0297509L510.78 41.1762C525.239 47.5225 528.787 53.2379 518.123 58.1375L424.097 91.9437L272.265 146.862L154.626 189.551C126.486 198.989 100.685 216.356 80.8677 241.25C25.8685 310.339 37.6804 411.24 107.251 466.622C176.822 522.005 277.801 510.894 332.8 441.805C360.139 407.463 370.964 365.265 366.4 324.697L409.972 308.648C419.321 364.073 406.079 422.933 368.459 470.191C297.89 558.839 168.327 573.095 79.061 502.034C-10.1978 430.978 -25.3531 301.518 45.2163 212.87Z" fill="white"/>
</svg>
