<svg width="755" height="445" viewBox="0 0 755 445" fill="none" xmlns="http://www.w3.org/2000/svg">
<g clip-path="url(#clip0_3676_108142)">
<path fill-rule="evenodd" clip-rule="evenodd" d="M228.889 57.0201C271.41 57.0201 311.219 68.7095 345.333 89.0556H345.373L346.28 89.6079C347.597 90.4013 348.883 91.2047 350.189 92.0181L372.138 105.575L632.14 263.383L658.845 220.813L663.123 221.215L702.273 344.114C706.821 360.705 704.427 369.03 691.583 364.922L444.276 209.334L325.269 136.305C297.477 118.299 264.39 107.845 228.889 107.845C130.365 107.845 50.4986 188.275 50.4986 287.495C50.4986 386.715 130.375 467.145 228.889 467.145C296.599 467.145 355.495 429.154 385.72 373.187L428.879 399.649C389.759 470.248 314.868 518 228.889 518C102.473 518 0 414.803 0 287.495C0 160.196 102.473 57 228.889 57V57.0201Z" fill="#FFB805"/>
<path d="M35 0H884V445H35C148.562 283.615 155.156 186.905 35 0Z" fill="#FFB805"/>
</g>
<defs>
<clipPath id="clip0_3676_108142">
<rect width="755" height="445" fill="white"/>
</clipPath>
</defs>
</svg>
