<svg width="142" height="142" viewBox="0 0 142 142" fill="none" xmlns="http://www.w3.org/2000/svg">
<rect width="141.935" height="141.935" rx="22.7097" fill="white"/>
<g clip-path="url(#clip0_2873_94805)">
<path d="M128.659 70.9669C122.752 83.1107 96.603 92.9798 70.4628 92.9798C44.3225 92.9798 27.7946 83.0923 33.7013 70.9669C39.6081 58.8415 65.7484 48.9541 91.8978 48.9541C118.047 48.9541 134.557 58.869 128.65 70.9669H128.659Z" fill="#151317"/>
<path d="M90.9363 50.0547C116.04 50.0547 131.871 59.3276 126.203 70.6458C120.534 81.9641 95.4489 91.2554 70.3727 91.2554C45.2964 91.2554 29.4379 81.9733 35.1062 70.6458C40.7746 59.3184 65.86 50.0547 90.9363 50.0547Z" fill="#647387"/>
<path d="M86.9364 51.9898C109.61 51.9898 123.89 60.2446 118.727 70.4164C113.563 80.5882 90.8896 88.8705 68.2806 88.8705C45.6716 88.8705 31.3265 80.6157 36.4629 70.4164C39.8015 63.8767 50.3584 58.1442 63.5019 54.824C64.4191 54.5763 65.3914 54.3746 66.3453 54.1544C73.1197 52.7049 80.027 51.9671 86.9548 51.9531L86.9364 51.9898Z" fill="#151317"/>
<path d="M116.609 62.1163C117.179 63.02 117.517 64.0501 117.594 65.1155C117.67 66.1809 117.483 67.2488 117.05 68.2248C116.258 69.844 115.165 71.2976 113.83 72.5081C106.419 79.2679 89.7353 84.3033 73.0697 84.3033C53.4233 84.3033 41.0411 77.3051 45.5537 68.7109C48.6263 62.8042 59.0457 57.4294 71.5288 54.7787C72.9964 54.4668 74.4914 54.2192 76.0048 53.999C73.1057 54.2752 70.2242 54.7131 67.3739 55.3106C53.5425 58.319 41.8115 63.1802 38.3904 69.9125C33.4375 79.699 47.1588 87.6786 68.9515 87.6786C86.8094 87.6786 104.722 82.3314 113.28 74.9938C114.402 74.038 115.408 72.9544 116.279 71.7652C116.622 71.2811 116.929 70.7722 117.196 70.2427C117.938 68.9879 118.279 67.5368 118.174 66.0832C118.069 64.6295 117.523 63.2424 116.609 62.1071V62.1163Z" fill="#1254FF"/>
<path d="M25.2187 68.9124C24.9048 69.4426 24.4978 69.9118 24.0172 70.2974C23.5073 70.6768 22.8818 70.868 22.247 70.8385C21.7792 70.8385 21.4582 70.7468 21.3298 70.5909C21.2014 70.4349 21.1096 69.9855 21.7608 67.8943C22.0329 66.8539 22.5414 65.8903 23.2467 65.0785C23.5439 64.7549 23.9055 64.4971 24.3083 64.3218C24.7111 64.1464 25.1462 64.0574 25.5856 64.0604C25.8119 64.0486 26.038 64.0894 26.2459 64.1796C26.356 64.2438 26.4386 64.2897 26.4752 64.6841L26.6037 66.2158H33.8129C33.3627 66.8149 32.9783 67.4606 32.6664 68.142H25.6773L25.2187 68.9124ZM42.6455 69.3618C42.488 70.0539 42.142 70.6888 41.6458 71.1962C41.3535 71.4712 40.9733 71.6336 40.5726 71.6548H40.4259C40.4073 71.2445 40.4761 70.835 40.6277 70.4533C40.7819 69.8007 41.1192 69.2056 41.5999 68.7381C41.9093 68.4652 42.3063 68.3122 42.7189 68.3071H42.829C42.8409 68.6794 42.7785 69.0505 42.6455 69.3985V69.3618ZM59.8614 69.3618C59.7388 69.9606 59.4568 70.5152 59.0451 70.9669C58.8654 71.1476 58.6289 71.261 58.3755 71.2879H58.3205C58.3427 71.0034 58.4012 70.7229 58.4947 70.4533C58.6213 69.8596 58.9214 69.3169 59.3569 68.894C59.5602 68.7094 59.8113 68.5854 60.0815 68.5364C60.0486 68.8209 59.984 69.1008 59.8889 69.371L59.8614 69.3618ZM110.509 61.8408L112.417 55.7139L102.594 59.7862L102.346 59.8871L101.787 61.7949H99.8422L99.7597 62.0517C98.9831 61.693 98.1386 61.5053 97.2832 61.5014C96.66 61.5016 96.0409 61.6006 95.4488 61.7949H87.7535L86.2951 66.4451C86.2951 66.2525 86.2951 66.0599 86.2951 65.8673C86.2579 64.9401 85.9052 64.0535 85.2954 63.3542C84.5089 62.4979 83.4481 61.9431 82.2961 61.7857C80.9624 61.5682 79.6113 61.4761 78.2605 61.5106C77.2383 61.5077 76.2173 61.5813 75.2062 61.7307C74.3073 61.8393 73.4296 62.0804 72.6013 62.4461C71.7299 62.8037 70.9286 63.313 70.2349 63.9503C69.6462 64.5064 69.1424 65.1462 68.7399 65.849C68.6456 65.3634 68.4979 64.8897 68.2996 64.4365C67.6759 63.1065 66.2726 61.5106 63.1266 61.5106C62.3681 61.5026 61.6121 61.5982 60.8795 61.7949H52.4412L51.2305 65.6563C51.0888 65.2526 50.9043 64.8652 50.6802 64.5007C49.4145 62.5103 47.0756 61.5014 43.7278 61.5014C41.1409 61.4544 38.6042 62.2177 36.4728 63.6843C36.0938 63.9487 35.7294 64.2335 35.3813 64.5373C35.3813 61.6848 34.6108 59.667 33.0149 58.3737C31.6299 57.1906 29.5846 56.6127 26.7596 56.6127C23.6112 56.5436 20.5242 57.489 17.9545 59.3093C15.4259 61.195 13.5937 63.8658 12.7447 66.9037C11.9558 68.973 11.8624 71.2429 12.4788 73.37C12.745 74.2029 13.1728 74.9751 13.7379 75.6424C14.3029 76.3097 14.9939 76.859 15.7715 77.2589C17.5048 78.0126 19.3863 78.3639 21.2747 78.2862C22.9664 78.3231 24.6508 78.0527 26.2459 77.4882C27.6913 76.9511 29.0253 76.152 30.1807 75.131C30.8044 74.5674 31.3811 73.9539 31.9051 73.2966C32.147 74.4029 32.6934 75.4196 33.4827 76.2317C34.8493 77.5983 36.8855 78.2954 39.5362 78.2954C42.1527 78.3418 44.7183 77.5689 46.8738 76.0849C47.3875 75.7262 47.872 75.3275 48.323 74.8926L45.8282 82.863H54.6242L56.2201 77.8093C57.0534 78.1444 57.9452 78.3097 58.8433 78.2954C60.9187 78.2868 62.9286 77.5683 64.5391 76.2592C65.043 75.8621 65.5069 75.4166 65.9241 74.9292C66.0811 75.5716 66.3965 76.1643 66.8413 76.6536C67.8043 77.7542 69.3269 78.2954 71.4823 78.2954C72.8292 78.308 74.1687 78.094 75.4446 77.6625L76.05 77.424L76.2426 78.0018H91.4223L93.1374 72.4986C93.4403 71.2226 94.0161 70.0273 94.8251 68.995C94.9148 68.8963 95.0237 68.8169 95.1451 68.7617C95.2666 68.7065 95.398 68.6766 95.5314 68.6739C95.772 68.7053 96.0051 68.7799 96.2193 68.894L97.4024 69.4169L97.9619 68.7381H99.6129L98.8883 71.0586C98.3875 72.2872 98.1803 73.6157 98.283 74.9384C98.3526 75.4743 98.5421 75.9877 98.8375 76.4402C99.1328 76.8928 99.5264 77.2729 99.989 77.5524C101.124 78.12 102.393 78.3674 103.658 78.2679C105.023 78.2542 106.383 78.1098 107.721 77.8368L108.436 77.6992L108.822 77.6258L110.289 70.4074L107.657 71.1779L108.409 68.7473H111.298L113.463 61.8133L110.509 61.8408Z" fill="#363A3F"/>
<path d="M25.952 68.5816L25.5942 69.1503C25.2533 69.7307 24.8087 70.2437 24.2827 70.6637C23.693 71.1018 22.9713 71.3251 22.2373 71.2966C21.5769 71.2966 21.155 71.1315 20.9715 70.8104C20.9165 70.7095 20.6505 70.0675 21.366 67.7654C21.6602 66.6515 22.2097 65.6215 22.9711 64.7569C23.3108 64.3951 23.7216 64.1073 24.1777 63.9116C24.6338 63.7159 25.1254 63.6165 25.6218 63.6196C25.9374 63.5976 26.2534 63.6576 26.539 63.7939C26.7958 63.9406 26.9517 64.124 26.9884 64.6468L27.0801 65.7658H34.8213C34.0555 66.5943 33.4352 67.5463 32.9869 68.5816H25.952ZM43.1128 69.4988C42.9247 70.2619 42.5277 70.9576 41.9663 71.5076C41.5937 71.8478 41.113 72.0459 40.6088 72.067C40.2053 72.067 40.1227 71.9294 40.0677 71.8285C40.0126 71.7277 39.8659 71.4525 40.242 70.2785C40.4167 69.5448 40.8026 68.8784 41.3518 68.3615C41.7426 68.0179 42.2438 67.8259 42.7643 67.8204C43.1311 67.8204 43.1953 67.9304 43.2687 68.0497C43.3421 68.1689 43.4522 68.3615 43.1128 69.4805V69.4988ZM58.0815 70.2968C58.2415 69.6177 58.5952 68.9995 59.0996 68.5174C59.4148 68.2326 59.8215 68.0699 60.2461 68.0588C60.4479 68.0588 60.4662 68.0589 60.5121 68.1689C60.5792 68.6185 60.5122 69.078 60.3195 69.4897C60.1728 70.1818 59.8324 70.818 59.3381 71.3241C59.091 71.5689 58.7671 71.7211 58.4209 71.7552C58.054 71.7552 57.999 71.6543 57.9531 71.5901C57.9072 71.5259 57.788 71.2415 58.1274 70.2785L58.0815 70.2968ZM67.969 70.0767C68.14 69.4765 68.2596 68.8628 68.3266 68.2423L70.6563 68.4808C69.9034 68.7213 69.1964 69.0872 68.5651 69.5631C68.36 69.7133 68.164 69.8757 67.9781 70.0492L67.969 70.0767ZM110.921 68.3157L112.811 62.2713H109.949L111.784 56.4746L102.777 60.2076L102.135 62.2713H100.19L100.053 62.7116C99.2119 62.2391 98.2654 61.9867 97.3011 61.9778C96.6773 61.9694 96.0567 62.0686 95.4667 62.2713H88.0281L83.6164 76.3687V76.121C83.5471 75.78 83.5133 75.4326 83.5155 75.0846C83.5668 74.6977 83.6559 74.3168 83.7815 73.9473L85.5517 68.2973C85.8019 67.5319 85.8985 66.7246 85.8361 65.9218C85.7985 65.0894 85.4745 64.2955 84.9188 63.6746C84.1956 62.8926 83.2228 62.3867 82.1672 62.2438C80.8576 62.0319 79.5311 61.9429 78.2049 61.9778C77.2044 61.9736 76.2049 62.0441 75.2148 62.1888C74.3603 62.2909 73.5256 62.5197 72.7384 62.8675C71.9144 63.2056 71.1567 63.6869 70.5004 64.2892C69.8144 64.9475 69.2439 65.7164 68.8128 66.5638L68.3909 67.3526C68.4076 66.4074 68.2231 65.4695 67.8497 64.601C67.2811 63.3903 66.0153 61.9411 63.0894 61.9411C62.0912 61.939 61.1016 62.1257 60.1727 62.4914L60.2553 62.2346H52.7801L51.1383 67.481C51.1056 66.5079 50.8212 65.5598 50.3128 64.7294C49.1388 62.895 46.9284 61.9778 43.7457 61.9778C41.2465 61.9291 38.7952 62.667 36.7382 64.0874C36.0914 64.5391 35.4921 65.0553 34.9497 65.6283V64.546C34.9497 61.7944 34.2251 59.96 32.7484 58.7309C31.4368 57.6119 29.4832 57.0708 26.7774 57.0708C23.7247 57.0062 20.7318 57.9224 18.2383 59.6848C15.7939 61.5077 14.0204 64.0874 13.1937 67.0224C12.4331 69.0017 12.3365 71.1746 12.9185 73.2135C13.1625 73.9979 13.5598 74.7261 14.0872 75.3558C14.6146 75.9856 15.2618 76.5044 15.9911 76.8823C17.6675 77.6071 19.4863 77.9427 21.3109 77.8637C22.9494 77.8997 24.5808 77.6387 26.1262 77.0933C27.5248 76.5729 28.8153 75.7986 29.9326 74.8095C30.804 73.9997 31.5824 73.0953 32.2531 72.1129C32.2843 73.5325 32.8549 74.887 33.8491 75.9009C35.124 77.1758 37.0593 77.827 39.5816 77.827C42.1092 77.8759 44.5886 77.1318 46.6715 75.6991C47.7522 74.9429 48.6849 73.9947 49.4231 72.9017L46.4514 82.4039H54.3118L55.9628 77.1758L56.2655 77.3134C57.0836 77.6694 57.969 77.8446 58.8611 77.827C60.8369 77.8164 62.7497 77.1302 64.2818 75.8826C65.0501 75.2721 65.7212 74.5485 66.2721 73.7363C66.2439 74.2083 66.3106 74.6812 66.4681 75.127C66.6256 75.5728 66.8709 75.9825 67.1893 76.332C68.1065 77.3409 69.4823 77.827 71.5002 77.827C72.797 77.8402 74.0867 77.6356 75.3157 77.2217C75.6602 77.0979 75.9971 76.954 76.3247 76.7906L76.5723 77.5335H91.0916L92.7059 72.3697C93.0401 71.0268 93.6665 69.7741 94.5403 68.7009C94.8084 68.4258 95.1743 68.2676 95.5584 68.2606C95.8628 68.2887 96.1588 68.3759 96.4297 68.5174L97.3469 68.9027L97.8239 68.3248H100.291L99.3739 71.2232C98.8988 72.3848 98.698 73.6402 98.7869 74.892C98.8466 75.3636 99.0121 75.8156 99.2709 76.2142C99.5298 76.6128 99.8755 76.9478 100.282 77.1942C101.338 77.711 102.513 77.9359 103.685 77.8454C105.022 77.8322 106.355 77.6909 107.665 77.4235L108.473 77.2675L109.738 71.0581L107.785 71.6359C107.5 71.7185 107.253 71.7827 107.023 71.8285L108.115 68.3248H111.004L110.921 68.3157Z" fill="#151317"/>
<path d="M29.0982 73.8836C30.3612 72.7271 31.3944 71.3423 32.1433 69.8021H26.6401C26.2266 70.5046 25.6889 71.1261 25.0533 71.6365C24.2505 72.2548 23.2597 72.5786 22.2467 72.5537C21.7945 72.6037 21.3374 72.5274 20.9261 72.333C20.5147 72.1387 20.1654 71.8341 19.917 71.4531C19.4951 70.7101 19.6051 69.371 20.2105 67.4174C20.5602 66.1177 21.2141 64.9198 22.1182 63.9228C22.5722 63.4458 23.1187 63.0664 23.7243 62.8077C24.3298 62.5491 24.9818 62.4167 25.6403 62.4186C26.1534 62.4043 26.6616 62.5211 27.117 62.758C27.4422 62.9414 27.7129 63.2079 27.9014 63.5302C28.09 63.8524 28.1896 64.219 28.1901 64.5924H33.6933C33.6933 62.8405 33.3815 60.9236 31.9231 59.7037C30.85 58.7865 29.1165 58.3371 26.7501 58.3371C23.9546 58.2673 21.2111 59.1003 18.9264 60.7126C16.6935 62.39 15.0805 64.7611 14.3404 67.454C13.6956 69.166 13.6121 71.0387 14.1019 72.8013C14.2961 73.4341 14.6143 74.0219 15.0378 74.5305C15.4614 75.0392 15.982 75.4584 16.5692 75.7639C18.0747 76.4028 19.7049 76.6944 21.3386 76.6169C22.8332 76.6512 24.3215 76.4151 25.732 75.9198C26.9688 75.4521 28.1097 74.7619 29.0982 73.8836ZM42.7461 72.4528C43.5017 71.7547 44.0399 70.8534 44.2962 69.8571C44.4656 69.4679 44.553 69.048 44.553 68.6235C44.553 68.199 44.4656 67.779 44.2962 67.3898C44.1392 67.1237 43.9107 66.907 43.6367 66.7644C43.3627 66.6217 43.0541 66.5587 42.7461 66.5827C41.9492 66.5882 41.1797 66.8739 40.5723 67.3898C39.8223 68.0617 39.2918 68.9438 39.0498 69.9213C38.875 70.3204 38.7848 70.7514 38.7848 71.187C38.7848 71.6227 38.875 72.0537 39.0498 72.4528C39.2116 72.7247 39.4454 72.9466 39.7254 73.0939C40.0055 73.2412 40.3208 73.3082 40.6365 73.2875C41.4218 73.2675 42.175 72.972 42.7645 72.4528H42.7461ZM43.7367 63.1982C46.4883 63.1982 48.3227 63.9412 49.2399 65.4179C49.616 66.0894 49.8375 66.8363 49.8882 67.6043C49.939 68.3723 49.8178 69.1419 49.5334 69.8571C48.9128 71.8319 47.6424 73.5387 45.9288 74.6999C44.0429 75.9959 41.796 76.6635 39.5084 76.6077C37.2888 76.6077 35.6745 76.0666 34.6472 75.0393C33.3906 73.7369 33.0788 72.04 33.73 69.9305C34.3673 67.9463 35.6612 66.2382 37.3988 65.0877C39.2504 63.8164 41.4545 63.1587 43.7 63.2074L43.7367 63.1982ZM61.5212 69.8112C61.3077 70.7249 60.8328 71.5567 60.1546 72.2051C59.6786 72.6453 59.0599 72.8993 58.4119 72.9206C58.1172 72.9465 57.821 72.8909 57.5557 72.7598C57.2904 72.6288 57.0663 72.4274 56.9077 72.1776C56.7469 71.8216 56.6637 71.4355 56.6637 71.0449C56.6637 70.6543 56.7469 70.2681 56.9077 69.9121C57.128 68.9959 57.6204 68.1677 58.3202 67.5366C58.8528 67.0667 59.5361 66.8032 60.2463 66.7937C60.5119 66.7732 60.7778 66.8299 61.0121 66.9568C61.2464 67.0837 61.4391 67.2754 61.5671 67.5091C61.7162 67.8761 61.7883 68.2698 61.7789 68.6659C61.7694 69.0619 61.6786 69.4518 61.5121 69.8112H61.5212ZM66.7401 65.1519C66.1348 63.8494 64.9057 63.2074 63.0713 63.2074C62.1252 63.2009 61.1881 63.3914 60.3197 63.7669C59.4511 64.1824 58.6502 64.7266 57.9441 65.3812L58.522 63.5009H53.6149L48.1117 81.1846H53.404L55.3301 75.0668C55.6878 75.5778 56.1843 75.9756 56.761 76.2133C57.4177 76.4966 58.128 76.6342 58.843 76.6169C60.5421 76.6053 62.1862 76.013 63.5024 74.9384C65.0409 73.675 66.1523 71.9679 66.6851 70.0497C67.3031 68.4753 67.3194 66.7284 66.7309 65.1427L66.7401 65.1519ZM77.4714 72.4894C77.8308 72.0449 78.0989 71.5338 78.2602 70.9853L78.5078 70.1965C77.7006 70.4441 76.8935 70.6459 76.0405 70.8477C75.2461 70.9802 74.48 71.2469 73.775 71.6365C73.4343 71.8465 73.1804 72.172 73.0596 72.5537C72.999 72.705 72.9798 72.8697 73.0039 73.031C73.0281 73.1922 73.0948 73.344 73.1972 73.4709C73.3468 73.6147 73.5263 73.7238 73.7229 73.7903C73.9195 73.8569 74.1283 73.8794 74.3345 73.8561C74.9471 73.854 75.5517 73.7162 76.1047 73.4526C76.6182 73.2435 77.0833 72.9313 77.4714 72.5354V72.4894ZM83.9927 64.464C84.3599 64.8875 84.5676 65.4261 84.5797 65.9865C84.631 66.6307 84.5562 67.2787 84.3595 67.8943L82.5893 73.5626C82.4391 74.022 82.3347 74.4951 82.2775 74.9751C82.2668 75.418 82.3037 75.8608 82.3876 76.2959H77.4805C77.3889 76.0518 77.3363 75.7949 77.3246 75.5346C77.3305 75.2645 77.3519 74.995 77.3888 74.7274C76.6279 75.2741 75.7984 75.7182 74.9215 76.0482C73.8254 76.4172 72.6752 76.6001 71.5187 76.5894C69.8861 76.5894 68.7671 76.2317 68.1342 75.5163C67.8222 75.1644 67.6148 74.7323 67.5354 74.2688C67.456 73.8052 67.5077 73.3287 67.6848 72.893C67.9727 71.9403 68.5536 71.1027 69.345 70.4991C70.493 69.7344 71.8077 69.2563 73.1788 69.105C75.2609 68.7289 76.6092 68.4538 77.2604 68.3254C77.9116 68.197 78.5628 67.9677 79.2966 67.7384C79.3893 67.5387 79.4374 67.3211 79.4374 67.1009C79.4374 66.8807 79.3893 66.6632 79.2966 66.4635C79.0948 66.2158 78.6729 66.1058 77.9941 66.1058C77.2861 66.079 76.5811 66.2106 75.9304 66.491C75.4524 66.7698 75.052 67.164 74.7656 67.6375L69.9044 67.1422C70.2708 66.4195 70.7543 65.7624 71.3353 65.1977C71.9001 64.6827 72.5524 64.2727 73.2614 63.987C73.9468 63.6855 74.6732 63.4877 75.4168 63.4C76.343 63.2632 77.2781 63.1957 78.2143 63.1982C79.4605 63.1665 80.7071 63.2494 81.9381 63.4459C82.7183 63.5411 83.4412 63.9042 83.9835 64.4731L83.9927 64.464ZM88.9455 63.4734H93.8526L93.2013 65.5554C93.78 64.8311 94.4779 64.2107 95.265 63.721C95.8778 63.3678 96.5759 63.1901 97.2829 63.2074C98.1055 63.2176 98.9101 63.4488 99.6126 63.8769L96.861 67.3715C96.4345 67.1604 95.9695 67.0387 95.4943 67.0138C94.8051 67.027 94.1478 67.3064 93.6599 67.7934C92.6446 69.0198 91.9174 70.4585 91.532 72.0034L90.2296 76.305H84.9649L88.9822 63.4642L88.9455 63.4734ZM108.289 63.4734L109.812 58.5847L103.758 61.0978L103.015 63.4734H101.062L99.9428 67.0596H101.887L100.475 71.5631C100.07 72.5509 99.885 73.6151 99.9336 74.6816C99.9669 74.9743 100.067 75.2556 100.226 75.5037C100.385 75.7517 100.599 75.9599 100.851 76.1124C101.715 76.4945 102.661 76.6553 103.602 76.5802C104.86 76.5655 106.113 76.4303 107.345 76.1766L108.042 72.7647C107.484 72.9517 106.904 73.0658 106.317 73.104C105.868 73.104 105.62 72.9481 105.538 72.6729C105.512 72.3057 105.575 71.9377 105.721 71.5998L107.134 67.0138H110.023L111.142 63.4275L108.289 63.4734Z" fill="white"/>
</g>
<defs>
<clipPath id="clip0_2873_94805">
<rect width="117.787" height="44.044" fill="white" transform="translate(12.0742 48.9453)"/>
</clipPath>
</defs>
</svg>
