<svg xmlns="http://www.w3.org/2000/svg" width="64" height="64" viewBox="0 0 64 64" fill="none">
  <path d="M56 12.5H8C7.07174 12.5 6.1815 12.8687 5.52513 13.5251C4.86875 14.1815 4.5 15.0717 4.5 16V48C4.5 48.9283 4.86875 49.8185 5.52513 50.4749C6.1815 51.1312 7.07174 51.5 8 51.5H56C56.9283 51.5 57.8185 51.1312 58.4749 50.4749C59.1312 49.8185 59.5 48.9283 59.5 48V16C59.5 15.0717 59.1312 14.1815 58.4749 13.5251C57.8185 12.8687 56.9283 12.5 56 12.5ZM8 15.5H56C56.1326 15.5 56.2598 15.5527 56.3536 15.6464C56.4473 15.7402 56.5 15.8674 56.5 16V22.5H7.5V16C7.5 15.8674 7.55268 15.7402 7.64645 15.6464C7.74021 15.5527 7.86739 15.5 8 15.5ZM56 48.5H8C7.86739 48.5 7.74021 48.4473 7.64645 48.3536C7.55268 48.2598 7.5 48.1326 7.5 48V25.5H56.5V48C56.5 48.1326 56.4473 48.2598 56.3536 48.3536C56.2598 48.4473 56.1326 48.5 56 48.5ZM51.5 42C51.5 42.3978 51.342 42.7794 51.0607 43.0607C50.7794 43.342 50.3978 43.5 50 43.5H42C41.6022 43.5 41.2206 43.342 40.9393 43.0607C40.658 42.7794 40.5 42.3978 40.5 42C40.5 41.6022 40.658 41.2206 40.9393 40.9393C41.2206 40.658 41.6022 40.5 42 40.5H50C50.3978 40.5 50.7794 40.658 51.0607 40.9393C51.342 41.2206 51.5 41.6022 51.5 42ZM35.5 42C35.5 42.3978 35.342 42.7794 35.0607 43.0607C34.7794 43.342 34.3978 43.5 34 43.5H30C29.6022 43.5 29.2206 43.342 28.9393 43.0607C28.658 42.7794 28.5 42.3978 28.5 42C28.5 41.6022 28.658 41.2206 28.9393 40.9393C29.2206 40.658 29.6022 40.5 30 40.5H34C34.3978 40.5 34.7794 40.658 35.0607 40.9393C35.342 41.2206 35.5 41.6022 35.5 42Z" fill="#2E82E6"/>
</svg>