<svg width="12" height="9" viewBox="0 0 12 9" fill="none" xmlns="http://www.w3.org/2000/svg">
<rect x="0.865234" y="0.858887" width="11.1255" height="7.94677" rx="1.58935" fill="white"/>
<mask id="mask0_3907_98604" style="mask-type:alpha" maskUnits="userSpaceOnUse" x="0" y="0" width="12" height="9">
<rect x="0.865234" y="0.858887" width="11.1255" height="7.94677" rx="1.58935" fill="white"/>
</mask>
<g mask="url(#mask0_3907_98604)">
<path fill-rule="evenodd" clip-rule="evenodd" d="M11.9888 0.859375H0.863281V1.38916H11.9888V0.859375ZM11.9888 1.91907H0.863281V2.44886H11.9888V1.91907ZM0.863281 2.97839H11.9888V3.50817H0.863281V2.97839ZM11.9888 4.03808H0.863281V4.56787H11.9888V4.03808ZM0.863281 5.09778H11.9888V5.62757H0.863281V5.09778ZM11.9888 6.1571H0.863281V6.68688H11.9888V6.1571ZM0.863281 7.21679H11.9888V7.74658H0.863281V7.21679ZM11.9888 8.27649H0.863281V8.80628H11.9888V8.27649Z" fill="#D02F44"/>
<rect x="0.865234" y="0.858887" width="4.76806" height="3.70849" fill="#46467F"/>
<g filter="url(#filter0_d_3907_98604)">
<path fill-rule="evenodd" clip-rule="evenodd" d="M1.92236 1.65356C1.92236 1.79986 1.80377 1.91846 1.65747 1.91846C1.51117 1.91846 1.39258 1.79986 1.39258 1.65356C1.39258 1.50727 1.51117 1.38867 1.65747 1.38867C1.80377 1.38867 1.92236 1.50727 1.92236 1.65356ZM2.98245 1.65356C2.98245 1.79986 2.86385 1.91846 2.71756 1.91846C2.57126 1.91846 2.45267 1.79986 2.45267 1.65356C2.45267 1.50727 2.57126 1.38867 2.71756 1.38867C2.86385 1.38867 2.98245 1.50727 2.98245 1.65356ZM3.77609 1.91846C3.92239 1.91846 4.04099 1.79986 4.04099 1.65356C4.04099 1.50727 3.92239 1.38867 3.77609 1.38867C3.6298 1.38867 3.5112 1.50727 3.5112 1.65356C3.5112 1.79986 3.6298 1.91846 3.77609 1.91846ZM5.10107 1.65356C5.10107 1.79986 4.98248 1.91846 4.83618 1.91846C4.68988 1.91846 4.57129 1.79986 4.57129 1.65356C4.57129 1.50727 4.68988 1.38867 4.83618 1.38867C4.98248 1.38867 5.10107 1.50727 5.10107 1.65356ZM2.18674 2.44811C2.33303 2.44811 2.45163 2.32952 2.45163 2.18322C2.45163 2.03692 2.33303 1.91833 2.18674 1.91833C2.04044 1.91833 1.92185 2.03692 1.92185 2.18322C1.92185 2.32952 2.04044 2.44811 2.18674 2.44811ZM3.51172 2.18322C3.51172 2.32952 3.39312 2.44811 3.24683 2.44811C3.10053 2.44811 2.98193 2.32952 2.98193 2.18322C2.98193 2.03692 3.10053 1.91833 3.24683 1.91833C3.39312 1.91833 3.51172 2.03692 3.51172 2.18322ZM4.30691 2.44811C4.45321 2.44811 4.57181 2.32952 4.57181 2.18322C4.57181 2.03692 4.45321 1.91833 4.30691 1.91833C4.16062 1.91833 4.04202 2.03692 4.04202 2.18322C4.04202 2.32952 4.16062 2.44811 4.30691 2.44811ZM5.10107 2.71326C5.10107 2.85956 4.98248 2.97816 4.83618 2.97816C4.68988 2.97816 4.57129 2.85956 4.57129 2.71326C4.57129 2.56697 4.68988 2.44837 4.83618 2.44837C4.98248 2.44837 5.10107 2.56697 5.10107 2.71326ZM3.77609 2.97816C3.92239 2.97816 4.04099 2.85956 4.04099 2.71326C4.04099 2.56697 3.92239 2.44837 3.77609 2.44837C3.6298 2.44837 3.5112 2.56697 3.5112 2.71326C3.5112 2.85956 3.6298 2.97816 3.77609 2.97816ZM2.98245 2.71326C2.98245 2.85956 2.86385 2.97816 2.71756 2.97816C2.57126 2.97816 2.45267 2.85956 2.45267 2.71326C2.45267 2.56697 2.57126 2.44837 2.71756 2.44837C2.86385 2.44837 2.98245 2.56697 2.98245 2.71326ZM1.65747 2.97816C1.80377 2.97816 1.92236 2.85956 1.92236 2.71326C1.92236 2.56697 1.80377 2.44837 1.65747 2.44837C1.51117 2.44837 1.39258 2.56697 1.39258 2.71326C1.39258 2.85956 1.51117 2.97816 1.65747 2.97816ZM2.45163 3.24292C2.45163 3.38922 2.33303 3.50781 2.18674 3.50781C2.04044 3.50781 1.92185 3.38922 1.92185 3.24292C1.92185 3.09662 2.04044 2.97803 2.18674 2.97803C2.33303 2.97803 2.45163 3.09662 2.45163 3.24292ZM3.24683 3.50781C3.39312 3.50781 3.51172 3.38922 3.51172 3.24292C3.51172 3.09662 3.39312 2.97803 3.24683 2.97803C3.10053 2.97803 2.98193 3.09662 2.98193 3.24292C2.98193 3.38922 3.10053 3.50781 3.24683 3.50781ZM4.57181 3.24292C4.57181 3.38922 4.45321 3.50781 4.30691 3.50781C4.16062 3.50781 4.04202 3.38922 4.04202 3.24292C4.04202 3.09662 4.16062 2.97803 4.30691 2.97803C4.45321 2.97803 4.57181 3.09662 4.57181 3.24292ZM4.83618 4.03747C4.98248 4.03747 5.10107 3.91887 5.10107 3.77257C5.10107 3.62628 4.98248 3.50768 4.83618 3.50768C4.68988 3.50768 4.57129 3.62628 4.57129 3.77257C4.57129 3.91887 4.68988 4.03747 4.83618 4.03747ZM4.04099 3.77257C4.04099 3.91887 3.92239 4.03747 3.77609 4.03747C3.6298 4.03747 3.5112 3.91887 3.5112 3.77257C3.5112 3.62628 3.6298 3.50768 3.77609 3.50768C3.92239 3.50768 4.04099 3.62628 4.04099 3.77257ZM2.71756 4.03747C2.86385 4.03747 2.98245 3.91887 2.98245 3.77257C2.98245 3.62628 2.86385 3.50768 2.71756 3.50768C2.57126 3.50768 2.45267 3.62628 2.45267 3.77257C2.45267 3.91887 2.57126 4.03747 2.71756 4.03747ZM1.92236 3.77257C1.92236 3.91887 1.80377 4.03747 1.65747 4.03747C1.51117 4.03747 1.39258 3.91887 1.39258 3.77257C1.39258 3.62628 1.51117 3.50768 1.65747 3.50768C1.80377 3.50768 1.92236 3.62628 1.92236 3.77257Z" fill="url(#paint0_linear_3907_98604)"/>
</g>
</g>
<defs>
<filter id="filter0_d_3907_98604" x="1.39258" y="1.38867" width="3.70898" height="3.4436" filterUnits="userSpaceOnUse" color-interpolation-filters="sRGB">
<feFlood flood-opacity="0" result="BackgroundImageFix"/>
<feColorMatrix in="SourceAlpha" type="matrix" values="0 0 0 0 0 0 0 0 0 0 0 0 0 0 0 0 0 0 127 0" result="hardAlpha"/>
<feOffset dy="0.794677"/>
<feColorMatrix type="matrix" values="0 0 0 0 0 0 0 0 0 0 0 0 0 0 0 0 0 0 0.06 0"/>
<feBlend mode="normal" in2="BackgroundImageFix" result="effect1_dropShadow_3907_98604"/>
<feBlend mode="normal" in="SourceGraphic" in2="effect1_dropShadow_3907_98604" result="shape"/>
</filter>
<linearGradient id="paint0_linear_3907_98604" x1="1.39258" y1="1.38867" x2="1.39258" y2="4.0376" gradientUnits="userSpaceOnUse">
<stop stop-color="white"/>
<stop offset="1" stop-color="#F0F0F0"/>
</linearGradient>
</defs>
</svg>
