<svg width="180" height="48" viewBox="0 0 180 48" fill="none" xmlns="http://www.w3.org/2000/svg">
<path fill-rule="evenodd" clip-rule="evenodd" d="M23.8319 47.9998C36.9391 47.9998 47.6634 37.1998 47.6634 24.0001V23.9997C47.6634 10.8 36.9391 0 23.8319 0C10.7243 0 0 10.8 0 23.9997V24.0001C0 37.1998 10.7243 47.9998 23.8319 47.9998Z" fill="url(#paint0_linear_3489_109557)"/>
<path fill-rule="evenodd" clip-rule="evenodd" d="M16.3007 14.3036C18.0902 14.3036 19.7655 14.7955 21.2012 15.6518H21.2029L21.2411 15.675C21.2965 15.7084 21.3506 15.7422 21.4056 15.7765L22.3293 16.347L33.2714 22.9883L34.3952 21.1967L34.5753 21.2136L36.2229 26.3858C36.4143 27.084 36.3136 27.4344 35.773 27.2615L25.3652 20.7137L20.3568 17.6403C19.1872 16.8825 17.7947 16.4425 16.3007 16.4425C12.1543 16.4425 8.79319 19.8274 8.79319 24.003C8.79319 28.1787 12.1548 31.5635 16.3007 31.5635C19.1503 31.5635 21.6288 29.9647 22.9009 27.6094L24.7172 28.723C23.0708 31.6941 19.9191 33.7038 16.3007 33.7038C10.9805 33.7038 6.66797 29.3608 6.66797 24.003C6.66797 18.6457 10.9805 14.3027 16.3007 14.3027V14.3036Z" fill="#F5A623"/>
<path fill-rule="evenodd" clip-rule="evenodd" d="M31.3931 33.7038C29.6036 33.7038 27.9283 33.2118 26.4926 32.3556H26.4909L26.4527 32.3319C26.3977 32.2985 26.3432 32.2647 26.2886 32.2305L25.3645 31.6599L14.4224 25.0186L13.2989 26.8102L13.1189 26.7933L11.4713 21.6211C11.2816 20.9043 11.3878 20.6067 11.8796 20.8553L15.8711 23.3209L22.3286 27.2928L27.3369 30.3662C28.5066 31.124 29.899 31.564 31.3931 31.564C35.5394 31.564 38.9006 28.1791 38.9006 24.0035C38.9006 19.8278 35.5394 16.443 31.3931 16.443C29.3321 16.443 27.4654 17.2793 26.1086 18.6335L24.2448 17.5021C26.0074 15.5377 28.5569 14.3027 31.3931 14.3027C36.7132 14.3027 41.0258 18.6457 41.0258 24.0035C41.0258 29.3608 36.7132 33.7038 31.3931 33.7038V33.7038Z" fill="white"/>
<path fill-rule="evenodd" clip-rule="evenodd" d="M34.4757 21.1406C34.5311 21.1406 34.5764 21.1858 34.5764 21.2421C34.5764 21.2978 34.5311 21.3435 34.4757 21.3435C34.4199 21.3435 34.375 21.2983 34.375 21.2421C34.375 21.1858 34.4199 21.1406 34.4757 21.1406Z" fill="#F5A623"/>
<path fill-rule="evenodd" clip-rule="evenodd" d="M13.1945 26.8454C13.1391 26.8454 13.0938 26.8002 13.0938 26.744C13.0938 26.6882 13.1387 26.6426 13.1945 26.6426C13.2499 26.6426 13.2952 26.6878 13.2952 26.744C13.2952 26.8002 13.2499 26.8454 13.1945 26.8454Z" fill="white"/>
<path d="M61.4941 32.2641H66.7107L72.5407 14.2383H68.0658L64.1024 27.5001L60.139 14.2383H55.6641L61.4941 32.2641Z" fill="#F9F9F9"/>
<path d="M75.3636 18.2522C76.6167 18.2522 77.665 17.1965 77.665 15.9345C77.665 14.6725 76.6167 13.6172 75.3636 13.6172C74.1108 13.6172 73.0625 14.6729 73.0625 15.9345C73.0625 17.1965 74.1108 18.2522 75.3636 18.2522V18.2522ZM73.4461 32.2609H77.2815V19.3853H73.4461V32.2609Z" fill="#F9F9F9"/>
<path d="M87.5933 23.0984V19.3902H84.9594V15.7852L81.124 16.944V19.3902H79.0781V23.0984H81.124V27.6561C81.124 31.2612 82.5815 32.7805 87.5933 32.2654V28.7634C85.9058 28.8665 84.9594 28.7634 84.9594 27.6561V23.0984H87.5933Z" fill="#F9F9F9"/>
<path d="M98.7726 19.3796V20.59C97.9286 19.6116 96.6759 19.0195 94.9628 19.0195C91.613 19.0195 88.8516 21.9809 88.8516 25.8176C88.8516 29.6547 91.613 32.6161 94.9628 32.6161C96.6759 32.6161 97.9291 32.024 98.7726 31.0452V32.2556H102.608V19.38L98.7726 19.3796ZM95.73 28.959C93.9657 28.959 92.6869 27.7486 92.6869 25.8172C92.6869 23.8862 93.9657 22.6757 95.73 22.6757C97.4943 22.6757 98.7726 23.8862 98.7726 25.8172C98.7726 27.7486 97.4939 28.959 95.73 28.959Z" fill="#F9F9F9"/>
<path d="M105.422 32.2515H109.258V13.4531H105.422V32.2515Z" fill="#F9F9F9"/>
<path d="M118.48 32.6159C122.367 32.6159 125.128 30.5556 125.128 27.0794C125.128 23.2685 122.086 22.3155 119.375 21.4913C116.588 20.6414 116.153 20.0751 116.153 19.251C116.153 18.53 116.792 17.8863 118.071 17.8863C119.707 17.8863 120.551 18.6846 121.165 19.972L124.617 17.9378C123.313 15.2854 121.011 13.8691 118.071 13.8691C114.976 13.8691 112.061 15.8775 112.061 19.3541C112.061 22.8045 114.67 24.0922 117.329 24.839C120.014 25.5858 121.037 26.0237 121.037 27.131C121.037 27.8262 120.551 28.5988 118.608 28.5988C116.588 28.5988 115.488 27.5946 114.849 26.101L111.32 28.1614C112.317 30.8138 114.721 32.6164 118.48 32.6164V32.6159Z" fill="#F9F9F9"/>
<path d="M140.615 19.3711L138.774 26.2723L136.78 19.3711H133.2L131.205 26.2723L129.364 19.3711H125.273L129.364 32.2466H132.944L134.99 25.3712L137.036 32.2466H140.615L144.707 19.3711H140.615Z" fill="#F9F9F9"/>
<path d="M154.999 19.3796V20.59C154.155 19.6116 152.902 19.0195 151.189 19.0195C147.84 19.0195 145.078 21.9809 145.078 25.8176C145.078 29.6547 147.84 32.6161 151.189 32.6161C152.902 32.6161 154.156 32.024 154.999 31.0452V32.2556H158.835V19.38H154.999V19.3796ZM151.957 28.959C150.192 28.959 148.914 27.7486 148.914 25.8172C148.914 23.8862 150.192 22.6757 151.957 22.6757C153.721 22.6757 154.999 23.8862 154.999 25.8172C154.999 27.7486 153.72 28.959 151.957 28.959Z" fill="#F9F9F9"/>
<path d="M169.294 19.02C167.58 19.02 166.327 19.6121 165.484 20.5905V19.38H161.648V37.4058H165.484V31.0452C166.328 32.0236 167.58 32.6161 169.294 32.6161C172.643 32.6161 175.405 29.6547 175.405 25.8176C175.405 21.9809 172.643 19.0195 169.294 19.0195V19.02ZM168.526 28.9599C166.762 28.9599 165.484 27.7495 165.484 25.818C165.484 23.887 166.763 22.6766 168.526 22.6766C170.291 22.6766 171.569 23.887 171.569 25.818C171.569 27.7495 170.291 28.9599 168.526 28.9599Z" fill="#F9F9F9"/>
<defs>
<linearGradient id="paint0_linear_3489_109557" x1="0.000419672" y1="23.9984" x2="47.6638" y2="23.9984" gradientUnits="userSpaceOnUse">
<stop stop-color="#03204C"/>
<stop offset="1" stop-color="#035C96"/>
</linearGradient>
</defs>
</svg>
