<svg width="48" height="48" viewBox="0 0 48 48" fill="none" xmlns="http://www.w3.org/2000/svg">
<path fill-rule="evenodd" clip-rule="evenodd" d="M23.8319 47.9998C36.9391 47.9998 47.6634 37.1998 47.6634 24.0001V23.9997C47.6634 10.8 36.9391 0 23.8319 0C10.7243 0 0 10.8 0 23.9997V24.0001C0 37.1998 10.7243 47.9998 23.8319 47.9998Z" fill="url(#paint0_linear_3498_111402)"/>
<path fill-rule="evenodd" clip-rule="evenodd" d="M16.3007 14.3036C18.0902 14.3036 19.7655 14.7955 21.2012 15.6518H21.2029L21.2411 15.675C21.2965 15.7084 21.3506 15.7422 21.4056 15.7765L22.3293 16.347L33.2714 22.9883L34.3952 21.1967L34.5753 21.2136L36.2229 26.3858C36.4143 27.084 36.3136 27.4344 35.773 27.2615L25.3652 20.7137L20.3568 17.6403C19.1872 16.8825 17.7947 16.4425 16.3007 16.4425C12.1543 16.4425 8.79319 19.8274 8.79319 24.003C8.79319 28.1787 12.1548 31.5635 16.3007 31.5635C19.1503 31.5635 21.6288 29.9647 22.9009 27.6094L24.7172 28.723C23.0708 31.6941 19.9191 33.7038 16.3007 33.7038C10.9805 33.7038 6.66797 29.3608 6.66797 24.003C6.66797 18.6457 10.9805 14.3027 16.3007 14.3027V14.3036Z" fill="#F5A623"/>
<path fill-rule="evenodd" clip-rule="evenodd" d="M31.3911 33.7038C29.6016 33.7038 27.9263 33.2118 26.4906 32.3556H26.4889L26.4507 32.3319C26.3958 32.2985 26.3412 32.2647 26.2867 32.2305L25.3625 31.6599L14.4204 25.0186L13.297 26.8102L13.1169 26.7933L11.4693 21.6211C11.2796 20.9043 11.3858 20.6067 11.8777 20.8553L15.8691 23.3209L22.3266 27.2928L27.335 30.3662C28.5046 31.124 29.8971 31.564 31.3911 31.564C35.5375 31.564 38.8986 28.1791 38.8986 24.0035C38.8986 19.8278 35.5375 16.443 31.3911 16.443C29.3301 16.443 27.4634 17.2793 26.1066 18.6335L24.2429 17.5021C26.0055 15.5377 28.555 14.3027 31.3911 14.3027C36.7113 14.3027 41.0238 18.6457 41.0238 24.0035C41.0238 29.3608 36.7113 33.7038 31.3911 33.7038Z" fill="white"/>
<path fill-rule="evenodd" clip-rule="evenodd" d="M34.4757 21.1406C34.5311 21.1406 34.5764 21.1858 34.5764 21.2421C34.5764 21.2978 34.5311 21.3435 34.4757 21.3435C34.4199 21.3435 34.375 21.2983 34.375 21.2421C34.375 21.1858 34.4199 21.1406 34.4757 21.1406Z" fill="#F5A623"/>
<path fill-rule="evenodd" clip-rule="evenodd" d="M13.1925 26.8454C13.1371 26.8454 13.0918 26.8002 13.0918 26.744C13.0918 26.6882 13.1367 26.6426 13.1925 26.6426C13.2479 26.6426 13.2932 26.6878 13.2932 26.744C13.2932 26.8002 13.2479 26.8454 13.1925 26.8454Z" fill="white"/>
<defs>
<linearGradient id="paint0_linear_3498_111402" x1="0.000419672" y1="23.9984" x2="47.6638" y2="23.9984" gradientUnits="userSpaceOnUse">
<stop stop-color="#03204C"/>
<stop offset="1" stop-color="#035C96"/>
</linearGradient>
</defs>
</svg>
