<svg width="48" height="48" viewBox="0 0 48 48" fill="none" xmlns="http://www.w3.org/2000/svg">
<path fill-rule="evenodd" clip-rule="evenodd" d="M4.5 12C4.5 10.4087 5.13214 8.88258 6.25736 7.75736C7.38258 6.63214 8.9087 6 10.5 6H37.5C39.0913 6 40.6174 6.63214 41.7426 7.75736C42.8679 8.88258 43.5 10.4087 43.5 12V36C43.5 37.5913 42.8679 39.1174 41.7426 40.2426C40.6174 41.3679 39.0913 42 37.5 42H10.5C8.9087 42 7.38258 41.3679 6.25736 40.2426C5.13214 39.1174 4.5 37.5913 4.5 36V12ZM12.44 13.94C12.7213 13.6591 13.1025 13.5013 13.5 13.5013C13.8975 13.5013 14.2787 13.6591 14.56 13.94L19.06 18.44C19.3409 18.7213 19.4987 19.1025 19.4987 19.5C19.4987 19.8975 19.3409 20.2787 19.06 20.56L14.56 25.06C14.2757 25.325 13.8996 25.4692 13.511 25.4624C13.1224 25.4555 12.7516 25.2981 12.4768 25.0232C12.2019 24.7484 12.0445 24.3776 12.0377 23.989C12.0308 23.6004 12.175 23.2243 12.44 22.94L15.88 19.5L12.44 16.06C12.1591 15.7787 12.0013 15.3975 12.0013 15C12.0013 14.6025 12.1591 14.2213 12.44 13.94ZM21 22.5C20.6022 22.5 20.2206 22.658 19.9393 22.9393C19.658 23.2206 19.5 23.6022 19.5 24C19.5 24.3978 19.658 24.7794 19.9393 25.0607C20.2206 25.342 20.6022 25.5 21 25.5H27C27.3978 25.5 27.7794 25.342 28.0607 25.0607C28.342 24.7794 28.5 24.3978 28.5 24C28.5 23.6022 28.342 23.2206 28.0607 22.9393C27.7794 22.658 27.3978 22.5 27 22.5H21Z" fill="#04396D"/>
</svg>
