<svg width="331" height="276" viewBox="0 0 331 276" fill="none" xmlns="http://www.w3.org/2000/svg">
<path fill-rule="evenodd" clip-rule="evenodd" d="M178.464 16.1212C197.487 27.1042 212.278 42.6158 222.285 60.529L222.303 60.5393L222.564 61.0253C222.943 61.7176 223.316 62.4119 223.686 63.1106L230.008 74.8471L305.571 212.598L328.509 200.45L330.319 201.735L316.092 266.826C313.71 275.609 310.755 278.12 307.052 272.46L279.752 221.753L235.481 139.9L201.101 76.4924C193.317 61.2589 181.215 48.036 165.332 38.8663C121.255 13.4179 64.7508 28.7685 39.1251 73.1536C13.4994 117.539 28.4572 174.148 72.5351 199.596C94.4447 212.245 119.422 214.812 142.155 208.746L155.025 232.211C124.232 242.273 89.5503 239.752 59.4007 222.346C2.84442 189.693 -16.3474 117.06 16.5329 60.11C49.4106 3.16412 121.908 -16.5315 178.464 16.1212V16.1212Z" fill="#EBEFF2"/>
</svg>
