<svg width="56" height="56" viewBox="0 0 56 56" fill="none" xmlns="http://www.w3.org/2000/svg">
<path d="M48.9998 4H6.99999C5.30011 4 4 5.30011 4 7V20.9997C4 22.6996 5.30011 23.9997 6.99999 23.9997H11.3999V48.5997C11.3999 50.4998 12.8999 51.9998 14.8 51.9998H41.0002C42.9003 51.9998 44.4003 50.4998 44.4003 48.5997L44.3999 23.9997H49C50.6001 23.9997 52 22.6996 52 20.9997V7C52 5.30011 50.5999 4 48.9998 4ZM44.9 16.1997H44.4999V14.1998H41.0998V42.8995C37.8999 42.8995 35.3998 45.4994 35.3998 48.5995H20.6004C20.6004 45.3996 18.0005 42.8995 14.9004 42.8995V14.0995H11.4002V16.0994L11.1002 16.0997C10.0003 16.0997 9.10032 15.1997 9.10032 14.0999C9.10032 13 10.0003 12.1 11.1002 12.1H44.8998C45.9997 12.1 46.8997 13 46.8997 14.0999C46.9 15.2995 45.9999 16.1997 44.9 16.1997Z" fill="#FFAB00"/>
<path d="M24.8006 26.3003C25.0005 26.6003 25.3005 26.7005 25.7006 26.7005C26.1007 26.7005 26.3006 26.6003 26.6006 26.4005C26.8005 26.2006 27.0007 25.7003 27.2006 25.1003H24.4005C24.4005 25.6002 24.5006 26.0003 24.8006 26.3003Z" fill="#04396D"/>
<path d="M30.7005 22.6001C30.4005 22.6001 30.1005 22.7002 29.9006 22.9001C29.7007 23.1 29.5005 23.5001 29.3006 24.1001H32.0006C32.0006 23.6002 31.8007 23.3002 31.6005 23.0002C31.4006 22.8 31.1006 22.6001 30.7005 22.6001Z" fill="#04396D"/>
<path d="M27.9995 15.7003C23.1995 15.7003 19.2996 19.6003 19.2996 24.4003C19.2996 29.2003 23.1995 33.1003 27.9995 33.1003C32.7995 33.1003 36.6995 29.2003 36.6995 24.4003C36.6995 19.6003 32.7995 15.7003 27.9995 15.7003ZM34.3996 25.1005H33.5997C33.4996 26.2004 33.0998 27.3007 32.3997 28.3004L30.9999 27.3003C31.4997 26.6002 31.7997 25.9004 31.8999 25.1002L28.9996 25.1005C28.6996 26.3005 28.2995 27.2005 27.8998 27.7004C27.3999 28.3004 26.6998 28.5003 25.7998 28.5003C24.8998 28.5003 24.1997 28.2003 23.5997 27.5002C22.9997 26.9002 22.6997 26.0002 22.6997 25.0001H21.5998V24H22.6997C22.7998 22.6001 23.3998 21.3 24.3995 20.2001L25.6996 21.3C24.8998 22.2 24.4996 23.1 24.3995 24H27.3995C27.6995 22.8 27.9995 22.0001 28.4994 21.4001C28.9993 20.9002 29.5993 20.6002 30.4993 20.6002C31.3993 20.6002 32.0994 20.9002 32.6994 21.5002C33.2994 22.1002 33.5994 22.9001 33.5994 23.9002H34.3993L34.3996 25.1005Z" fill="#04396D"/>
<path d="M32.5996 40.7001C32.5996 43.2404 30.5402 45.2999 27.9995 45.2999C25.4589 45.2999 23.3994 43.2404 23.3994 40.7001C23.3994 38.1595 25.4589 36.1 27.9995 36.1C30.5402 36.1 32.5996 38.1595 32.5996 40.7001Z" fill="#FFAB00"/>
</svg>
