<svg width="48" height="48" viewBox="0 0 48 48" fill="none" xmlns="http://www.w3.org/2000/svg">
<path d="M24 15C22.8065 15 21.6619 15.4741 20.818 16.318C19.9741 17.1619 19.5 18.3065 19.5 19.5C19.5 20.6935 19.9741 21.8381 20.818 22.682C21.6619 23.5259 22.8065 24 24 24C25.1935 24 26.3381 23.5259 27.182 22.682C28.0259 21.8381 28.5 20.6935 28.5 19.5C28.5 18.3065 28.0259 17.1619 27.182 16.318C26.3381 15.4741 25.1935 15 24 15Z" fill="#04396D"/>
<path fill-rule="evenodd" clip-rule="evenodd" d="M3 9.75C3 7.678 4.68 6 6.75 6H41.25C43.32 6 45 7.68 45 9.75V29.25C45 31.322 43.32 33 41.25 33H6.75C6.25754 33 5.76991 32.903 5.31494 32.7146C4.85997 32.5261 4.44657 32.2499 4.09835 31.9017C3.75013 31.5534 3.47391 31.14 3.28545 30.6851C3.097 30.2301 3 29.7425 3 29.25V9.75ZM16.5 19.5C16.5 17.5109 17.2902 15.6032 18.6967 14.1967C20.1032 12.7902 22.0109 12 24 12C25.9891 12 27.8968 12.7902 29.3033 14.1967C30.7098 15.6032 31.5 17.5109 31.5 19.5C31.5 21.4891 30.7098 23.3968 29.3033 24.8033C27.8968 26.2098 25.9891 27 24 27C22.0109 27 20.1032 26.2098 18.6967 24.8033C17.2902 23.3968 16.5 21.4891 16.5 19.5ZM37.5 18C37.1022 18 36.7206 18.158 36.4393 18.4393C36.158 18.7206 36 19.1022 36 19.5V19.516C36 20.344 36.672 21.016 37.5 21.016H37.516C37.9138 21.016 38.2954 20.858 38.5767 20.5767C38.858 20.2954 39.016 19.9138 39.016 19.516V19.5C39.016 19.1022 38.858 18.7206 38.5767 18.4393C38.2954 18.158 37.9138 18 37.516 18H37.5ZM9 19.5C9 19.1022 9.15804 18.7206 9.43934 18.4393C9.72064 18.158 10.1022 18 10.5 18H10.516C10.9138 18 11.2954 18.158 11.5767 18.4393C11.858 18.7206 12.016 19.1022 12.016 19.5V19.516C12.016 19.9138 11.858 20.2954 11.5767 20.5767C11.2954 20.858 10.9138 21.016 10.516 21.016H10.5C10.1022 21.016 9.72064 20.858 9.43934 20.5767C9.15804 20.2954 9 19.9138 9 19.516V19.5Z" fill="#04396D"/>
<path d="M4.5 36C4.10218 36 3.72064 36.158 3.43934 36.4393C3.15804 36.7206 3 37.1022 3 37.5C3 37.8978 3.15804 38.2794 3.43934 38.5607C3.72064 38.842 4.10218 39 4.5 39C15.3 39 25.76 40.444 35.7 43.15C38.08 43.798 40.5 42.034 40.5 39.51V37.5C40.5 37.1022 40.342 36.7206 40.0607 36.4393C39.7794 36.158 39.3978 36 39 36H4.5Z" fill="#04396D"/>
</svg>
