<svg xmlns="http://www.w3.org/2000/svg" width="64" height="64" viewBox="0 0 64 64" fill="none">
  <g clip-path="url(#clip0_142_6880)">
    <path fill-rule="evenodd" clip-rule="evenodd" d="M13.9868 42.6667V48C13.9868 48.7072 14.2678 49.3855 14.7679 49.8856C15.268 50.3857 15.9462 50.6667 16.6535 50.6667H56.6535C57.3607 50.6667 58.039 50.3857 58.5391 49.8856C59.0392 49.3855 59.3201 48.7072 59.3201 48V26.6667C59.3201 25.9594 59.0392 25.2811 58.5391 24.781C58.039 24.281 57.3607 24 56.6535 24H53.3335V28.892C53.6993 29.4366 54.1935 29.8828 54.7725 30.1913C55.3515 30.4999 55.9974 30.6613 56.6535 30.6613V44C55.5965 44.006 54.5849 44.4301 53.8397 45.1796C53.0944 45.9291 52.6761 46.943 52.6761 48H20.6468C20.6335 46.9489 20.2069 45.9452 19.4594 45.2061C18.7118 44.4671 17.7034 44.052 16.6522 44.0507V42.6667H13.9868Z" fill="#F5A623"/>
    <path d="M33.3332 26.6667C33.3332 28.0812 32.7713 29.4377 31.7711 30.4379C30.7709 31.4381 29.4143 32 27.9998 32C26.5853 32 25.2288 31.4381 24.2286 30.4379C23.2284 29.4377 22.6665 28.0812 22.6665 26.6667C22.6665 25.2522 23.2284 23.8957 24.2286 22.8955C25.2288 21.8953 26.5853 21.3334 27.9998 21.3334C29.4143 21.3334 30.7709 21.8953 31.7711 22.8955C32.7713 23.8957 33.3332 25.2522 33.3332 26.6667Z" fill="#F5A623"/>
    <path fill-rule="evenodd" clip-rule="evenodd" d="M8.00016 13.3334C7.29292 13.3334 6.61464 13.6143 6.11454 14.1144C5.61445 14.6145 5.3335 15.2928 5.3335 16V37.3334C5.3335 38.0406 5.61445 38.7189 6.11454 39.219C6.61464 39.7191 7.29292 40 8.00016 40H48.0002C48.7074 40 49.3857 39.7191 49.8858 39.219C50.3859 38.7189 50.6668 38.0406 50.6668 37.3334V16C50.6668 15.2928 50.3859 14.6145 49.8858 14.1144C49.3857 13.6143 48.7074 13.3334 48.0002 13.3334H8.00016ZM11.9975 16H44.0015C44.0029 17.0598 44.4248 18.0756 45.1745 18.8245C45.9242 19.5735 46.9404 19.9944 48.0002 19.9947V33.3334C46.9432 33.3394 45.9316 33.7634 45.1864 34.5129C44.4411 35.2624 44.0228 36.2764 44.0228 37.3334H11.9948C11.9815 36.2822 11.5549 35.2786 10.8074 34.5395C10.0598 33.8004 9.05138 33.3854 8.00016 33.384V20C9.06057 19.9993 10.0773 19.5776 10.8269 18.8275C11.5764 18.0775 11.9975 17.0604 11.9975 16Z" fill="#F5A623"/>
  </g>
  <defs>
    <clipPath id="clip0_142_6880">
      <rect width="64" height="64" fill="white"/>
    </clipPath>
  </defs>
</svg>