<svg width="56" height="56" viewBox="0 0 56 56" fill="none" xmlns="http://www.w3.org/2000/svg">
<path d="M26.115 19.4805V36.6814H51.8292V19.4805H26.115ZM36.5721 31.5211C34.6864 31.5211 33.1435 29.9731 33.1435 28.081C33.1435 26.1888 34.6864 24.6408 36.5721 24.6408C38.4578 24.6408 40.0007 26.1888 40.0007 28.081C40.0007 29.9731 38.4578 31.5211 36.5721 31.5211Z" fill="#04396D"/>
<path d="M52 15.1806H24.2286C22.8571 15.1806 21.8286 16.2127 21.8286 17.5888V38.4019C21.8286 39.778 22.8571 40.8101 24.2286 40.8101H52V47.0024C52 49.7546 49.7714 51.9907 47.0286 51.9907H8.97143C6.22857 52.1627 4 49.9266 4 47.1744V8.98828C4 6.23613 6.22857 4 8.97143 4H47.0286C49.7714 4 52 6.23613 52 8.98828V15.1806Z" fill="#FFAB00"/>
<path d="M26.115 19.4805V36.6814H51.8292V19.4805H26.115ZM36.5721 31.5211C34.6864 31.5211 33.1435 29.9731 33.1435 28.081C33.1435 26.1888 34.6864 24.6408 36.5721 24.6408C38.4578 24.6408 40.0007 26.1888 40.0007 28.081C40.0007 29.9731 38.4578 31.5211 36.5721 31.5211Z" fill="#04396D"/>
<path d="M26.115 19.4805V36.6814H51.8292V19.4805H26.115ZM36.5721 31.5211C34.6864 31.5211 33.1435 29.9731 33.1435 28.081C33.1435 26.1888 34.6864 24.6408 36.5721 24.6408C38.4578 24.6408 40.0007 26.1888 40.0007 28.081C40.0007 29.9731 38.4578 31.5211 36.5721 31.5211Z" fill="#04396D"/>
</svg>
